#!OML:ASF F:\VICON\USERDATA\INSTALL\rory3\rory3.ASF
:FULLY-SPECIFIED
:DEGREES
10
root -0.11455309714223694 18.937654903486795 -21.1383018150837 3.54184812976375 2.589706179997685 -4.610577368554518
lfemur -35.17692111077881 -1.1057580517223604 -18.862889165706903
ltibia 41.67618639445226
lfoot 2.8055789122629067 -6.525360628702257
ltoes -20.43926554215929
rfemur 10.741001720594497 7.997362493645663 31.678989078961354
rtibia 30.165452006070044
rfoot 22.295772588518222 -5.076144112198192
rtoes 12.344152515966025
lowerback 9.80208247151025 2.5029702879055167 5.067089269858953
upperback -1.874274291971323 4.145203172053424 1.298506825365385
thorax -7.889433711877225 1.8407190204236197 -1.7146001079774882
lowerneck -15.33475034733036 -5.088601985651465 -2.0804771633860155
upperneck 13.057054803225862 -6.8220776148158455 2.5941125456956615
head 6.427920521189194 -3.1683119385260254 0.489451502573615
lclavicle 4.287489377428783e-15 5.758944764131542e-17
lhumerus -72.27157315807442 -3.160935950594858 94.63105769853284
lradius 106.84954442084718
lwrist 28.404720991934884
lhand -28.297742349292474 2.0366045730718314
lfingers 7.125019999999998
lthumb -1.6735004028651703 31.9830402411133
rclavicle 4.287489377428783e-15 5.758944764131542e-17
rhumerus -36.473720603200626 20.000134018692243 -99.39049475557887
rradius 109.9178319623912
rwrist -8.992258275361126
rhand -20.644446564734924 46.811189022533064
rfingers 7.125019999999998
rthumb 5.717651975442326 17.110999383716972
11
root -0.0970027087882071 18.984744866260606 -20.184360460637535 3.2407972080308283 3.2677185235711184 -4.832287826365091
lfemur -33.54151838466138 -2.6831681252691806 -18.458460036036126
ltibia 33.58792318987106
lfoot 4.848137242559997 -9.004130664074976
ltoes -19.39500016515401
rfemur 11.097310879541226 8.833855997193577 32.73586352327202
rtibia 33.186156248801595
rfoot 21.342405739766566 -4.858289870899278
rtoes 15.046130096419022
lowerback 10.359466966559232 2.4155469645784224 5.45673871766787
upperback -1.828836759742841 4.114041556376481 1.258288408597764
thorax -8.087532744622397 1.7945758312184756 -1.9437136211230843
lowerneck -16.94147383477131 -5.184047128831483 -1.8036253539507534
upperneck 14.210654413439446 -6.987209630186514 2.5019514132674923
head 7.567433361160477 -3.215577699641158 0.35134788791650917
lclavicle 4.287489500380367e-15 5.75894831018354e-17
lhumerus -72.67369802880894 -3.07136196532966 94.4522592640465
lradius 106.95501465140163
lwrist 27.996251362818768
lhand -29.010234103898657 2.4673907432266553
lfingers 7.125019999999998
lthumb -2.361485408745869 32.42049535728575
rclavicle 4.287489500380367e-15 5.75894831018354e-17
rhumerus -36.50645904507873 20.6606758895227 -99.79926973822302
rradius 110.00344706746776
rwrist -8.68448415669027
rhand -23.371107242545285 39.07500183302881
rfingers 7.125019999999998
rthumb 3.0849393662950035 9.039690003941665
12
root -0.08135764777229926 19.011819177506325 -19.214227085141168 3.050427290881828 3.247929733658082 -5.339583012181588
lfemur -31.873350541176684 -4.00807243908929 -17.67628999337336
ltibia 26.934810595541013
lfoot 5.875018781831377 -9.660334296311763
ltoes -18.327742323047516
rfemur 10.811574626398542 9.762200230001483 33.91313327895238
rtibia 37.21829821470939
rfoot 20.137463083112227 -5.25748291327514
rtoes 14.573671797818095
lowerback 10.21627501701148 2.4416160510633094 5.799382340323474
upperback -1.8056632158481025 4.204915145838116 1.392303282731946
thorax -7.964182195553836 1.8323161942062514 -1.9527965381378944
lowerneck -17.06792546909796 -5.289846132016317 -1.86389058492407
upperneck 13.828809398937018 -7.111315903835235 2.504046633804247
head 7.437075515564102 -3.2794158798255797 0.34320208674879116
lclavicle 4.2874894632743556e-15 5.758951033036035e-17
lhumerus -73.03349396578199 -2.8810122842766894 94.6646563456838
lradius 107.0868524395947
lwrist 27.813159015992934
lhand -28.342581550356122 2.4187311726976777
lfingers 7.125019999999998
lthumb -1.716800672445515 32.36643690968224
rclavicle 4.2874894632743556e-15 5.758951033036035e-17
rhumerus -37.351350129827274 21.304315971381858 -100.37334420657932
rradius 109.90455830268941
rwrist -8.224768583445876
rhand -22.961431027163986 40.22252289869155
rfingers 7.125019999999998
rthumb 3.480611255025281 10.233123197600374
13
root -0.0752429411588818 18.97884653416779 -18.25251356059097 2.77715903826736 3.354862015082091 -5.060781392514992
lfemur -30.562745846488596 -5.038458216537324 -17.962235172074593
ltibia 22.676726111079333
lfoot 6.720350921991997 -9.355024290242039
ltoes -13.00173666230689
rfemur 10.046362690608166 9.87604581358828 33.916762215642585
rtibia 42.35984625985833
rfoot 18.789786736504016 -6.133488902891724
rtoes 14.614119452976341
lowerback 9.984137502680017 2.4344685225690466 5.1187430590665945
upperback -1.9544842137882932 4.099396601338162 1.4668939037494695
thorax -8.11774315813608 1.8133977760521034 -1.5497804525186647
lowerneck -15.403490284941372 -5.23414008961673 -1.9416271470188988
upperneck 12.091139654540529 -7.028878527210266 2.6097600336133526
head 5.993259350267287 -3.26692928757752 0.45891720622934284
lclavicle 4.287489420158692e-15 5.758947107046525e-17
lhumerus -73.7353317608754 -2.9886691253352176 95.31651742245029
lradius 107.175842946625
lwrist 27.812874268952772
lhand -28.266974466595407 2.165600112106263
lfingers 7.125019999999998
lthumb -1.6437970899061962 32.112072607119295
rclavicle 4.287489420158692e-15 5.758947107046525e-17
rhumerus -39.19427424671441 21.51181505591146 -100.96204810393581
rradius 109.47250067939603
rwrist -7.947861891871534
rhand -22.561081941029542 40.166379621080814
rfingers 7.125019999999998
rthumb 3.8671839376418298 10.200262519637691
